<svg id="Capa_1" data-name="Capa 1" xmlns="http://www.w3.org/2000/svg" viewBox="0 0 557.9 285.48"><defs><style>.cls-1{fill:#bb2f34;}.cls-2{fill:#528ebe;}.cls-3{fill:#08040a;}.cls-4{fill:#60a45e;}.cls-5{fill:#e0c338;}.cls-6{fill:#08050a;}.cls-7{fill:#61a45e;}.cls-8{fill:#e0c339;}</style></defs><title>logo_1tkdo</title><path d="M475.3,483.15c.46-2.07,1-4.14,1.37-6.23,1.22-6.57,2.34-13.16,3.58-19.72s2.66-13.08,3.89-19.64c1.28-6.79,2.39-13.62,3.91-20.37.4-1.8.64-3.65.95-5.47.25-1.41.66-1.67,1.95-1.65,6.06.06,12.12.07,18.18,0,1.45,0,2,.23,2,1.86q-.09,49.92,0,99.84c0,1.44-.22,2-1.86,2-4-.14-8-.19-11.94,0-2.06.1-2.21-.7-2.2-2.39q.07-29.25,0-58.51v-2.68l-.35,0c-2.21,10.84-4.36,21.69-6.65,32.5-2,9.67-4.26,19.3-6,29-.24,1.38-.82,2.19-2.54,2.07a42.39,42.39,0,0,0-8.2,0c-2.38.29-2.79-1-3.18-2.72q-2.6-11.37-5.22-22.73-3.87-16.87-7.74-33.76a22.4,22.4,0,0,0-1.48-4.33v2.52c0,19.42,0,38.84.06,58.26,0,2.38-.71,2.84-2.86,2.73a86.74,86.74,0,0,0-10.45,0c-2.41.17-2.74-.74-2.73-2.87q.09-49,0-98.09c0-2.39.74-2.79,2.87-2.73,5.55.14,11.13.24,16.67,0,2.69-.14,3.56.75,4,3.23,2.05,12.62,4.83,25.1,7.39,37.63,2.19,10.71,4.1,21.49,6.13,32.24Z" transform="translate(-13.7 -229.85)"/><path d="M62.86,429.05q0,41.81.06,83.62c0,2.06-.46,2.6-2.54,2.56q-10.46-.22-20.91,0c-2.06,0-2.56-.45-2.55-2.53Q37,449.09,37,385.5c0-2.13-.34-2.94-2.73-2.86-5.88.2-11.78,0-17.67.1-1.51,0-2.15-.23-2.1-2,.14-4.89.09-9.79,0-14.68,0-1.29.28-1.59,1.67-1.89,12.18-2.61,21.9-8.74,27.77-20.1a2.12,2.12,0,0,1,2.27-1.25c4.81,0,9.63.14,14.44,0,2-.07,2.23.62,2.22,2.36Q62.83,387.11,62.86,429.05Z" transform="translate(-13.7 -229.85)"/><path d="M113.43,459.22a19.28,19.28,0,0,1,10.43,10.72,39.3,39.3,0,0,1,2.35,20.51c-.71,5.06-2.14,9.73-5.13,13.77a22.24,22.24,0,0,1-14.22,8.93c-6.88,1.22-13.84.28-20.76.51-3.31.1-6.64-.13-9.95.07-2,.12-2.37-.6-2.37-2.46q.07-49.39,0-98.79a6.53,6.53,0,0,0,0-1c-.14-1.07.25-1.42,1.37-1.42,8.21.05,16.43-.25,24.63.11a26.78,26.78,0,0,1,17.42,7.29C121.1,421.1,123,426,124,431.05a31.48,31.48,0,0,1-.91,17.09C121.38,452.91,118.69,456.91,113.43,459.22ZM90.75,482.68c0,4.64,0,9.27,0,13.91,0,1.24.25,1.77,1.62,1.68,1.81-.13,3.64,0,5.46,0a11.18,11.18,0,0,0,9.93-7.17c1.9-4.65,1.81-9.38.87-14.08-.88-4.41-3.12-7.93-8-9.21-2.78-.73-5.55-.12-8.3-.43-1.39-.16-1.62.45-1.6,1.67C90.79,473.57,90.75,478.13,90.75,482.68Zm0-44.18c0,2.23-.06,4.47,0,6.7s-1,5.14.45,6.39c1.22,1.08,4.09.38,6.23.32a8.89,8.89,0,0,0,7.88-4.27c2.62-4.2,2.66-8.59,1.91-13.27s-3.31-7.51-7.63-8.59c-2.27-.57-4.77-.11-7.16-.28-1.48-.1-1.76.47-1.73,1.82C90.81,431,90.75,434.77,90.75,438.5Z" transform="translate(-13.7 -229.85)"/><path d="M424.37,375.09c1.5-8.29,3-16.59,4.53-24.87,1-5.53,2.33-11,3.32-16.55s1.95-10.93,3-16.37C435.53,316,436,316,437,316c4.73,0,9.46.06,14.19,0,1.33,0,1.64.38,1.64,1.66q-.06,40,0,79.93c0,1.33-.39,1.67-1.67,1.63-2.9-.09-5.81-.15-8.71,0-1.8.11-2.15-.48-2.14-2.18.07-15.44,0-30.88,0-46.32v-2.47l-.26,0c-1.07,5.07-2.16,10.14-3.22,15.21q-2.4,11.43-4.77,22.88c-.75,3.61-1.53,7.23-2.17,10.86-.26,1.45-.75,2.14-2.33,2.05-2.24-.12-4.48-.05-6.72,0-1.13,0-1.68-.24-2-1.56-3.07-13.11-6.27-26.18-9.39-39.27-.81-3.41-1.47-6.86-2.51-10.25V364c0,10.87-.09,21.75.07,32.62,0,2.31-.68,2.75-2.75,2.6a56.28,56.28,0,0,0-7.46,0c-1.74.1-2.37-.23-2.37-2.22q.14-39.46,0-78.93c0-1.51.22-2.15,2-2.1,4.72.14,9.46.11,14.19,0,1.58,0,2.05.62,2.32,2.05,2.09,10.73,4.29,21.44,6.38,32.17,1.62,8.29,3.12,16.6,4.68,24.9Z" transform="translate(-13.7 -229.85)"/><path d="M198.31,462.16c0-9.46.1-18.92,0-28.37a24.73,24.73,0,0,1,18.63-24.46c8.43-2.17,16.12-.16,22.67,5.89,5.74,5.31,8.09,11.84,8,19.54-.08,18.25-.2,36.5,0,54.74.15,11.77-7.5,22-18.47,24.85-8.33,2.14-16,.54-22.5-5.43-6.05-5.52-8.64-12.27-8.44-20.39C198.48,479.75,198.31,471,198.31,462.16Zm15.44-.78c0,9.45,0,18.9,0,28.34,0,5.91,4.21,9.57,9.09,9.48s8.86-3.6,8.86-9.46q0-28.1,0-56.19c0-5.91-4.21-9.56-9.09-9.48s-8.87,3.61-8.86,9.46C213.77,442.81,213.75,452.09,213.75,461.38Z" transform="translate(-13.7 -229.85)"/><path d="M137.56,462.16c0-9.45.1-18.91,0-28.37a24.73,24.73,0,0,1,18.62-24.46c8.43-2.17,16.12-.16,22.67,5.89,5.75,5.3,8.1,11.83,8.06,19.53-.09,18.25-.2,36.5,0,54.75.16,11.77-7.49,22-18.46,24.85-8.34,2.14-16,.54-22.5-5.43-6.05-5.51-8.64-12.26-8.45-20.38C137.72,479.75,137.56,471,137.56,462.16Zm33.37-.56c0-9.45,0-18.9,0-28.35,0-5.57-3.91-9.11-8.86-9.18s-9.05,3.61-9.05,9.26q0,28.35,0,56.69a8.74,8.74,0,0,0,8.87,9.18c5,.07,9-3.61,9-9.26Q170.94,475.77,170.93,461.6Z" transform="translate(-13.7 -229.85)"/><path d="M426.76,513.68c-5,0-10-.06-14.95,0a1.6,1.6,0,0,1-1.8-1.51c-.75-4.62-1.38-9.27-2-13.91-.35-2.4-.7-4.8-1-7.21-.13-1.08-.76-1.32-1.71-1.31-4.64,0-9.29,0-13.93,0-.88,0-1.2.17-1.35,1.18-1.08,7.26-2.31,14.5-3.4,21.76-.15,1-.59,1-1.28,1-4.64,0-9.29,0-13.93,0-1.09,0-1.33-.21-1.11-1.43,1.2-6.66,2.19-13.36,3.35-20,1.09-6.27,2.32-12.5,3.43-18.76.89-5,1.71-10,2.52-15,.87-5.34,1.63-10.69,2.53-16,.93-5.48,2-10.93,2.95-16.4.86-4.92,1.73-9.84,2.45-14.79.15-1,.51-1.16,1.36-1.16,6.47,0,12.94,0,19.41,0,.76,0,1.09.1,1.23,1,.74,4.77,1.62,9.53,2.45,14.29.94,5.39,1.9,10.79,2.81,16.18s1.77,10.83,2.67,16.23c.93,5.57,1.9,11.12,2.84,16.68q1.32,7.88,2.64,15.74c.94,5.56,1.92,11.11,2.85,16.68C426.12,509.06,426.4,511.21,426.76,513.68ZM404.3,474.34c-1.89-13.21-3.75-26.23-5.62-39.25-1.33,6.17-2.3,12.24-3.15,18.32-.9,6.49-1.55,13-2.62,19.49-.24,1.42-.13,1.46,1,1.45C397.34,474.31,400.73,474.34,404.3,474.34Z" transform="translate(-13.7 -229.85)"/><path d="M313.85,461.78c0-9.54.11-19.09,0-28.63-.18-11.45,9.24-22.28,20.22-24.13,8.51-1.43,15.8.83,21.79,6.62a23.22,23.22,0,0,1,7.3,16.34c.11,4,0,8,0,11.95,0,1.17-.27,1.57-1.5,1.55-4.31-.07-8.63-.11-12.95,0-1.51.05-1.54-.66-1.52-1.77,0-3.4-.09-6.81,0-10.21.21-5.46-4.61-9.63-8.85-9.56-4,.06-8.66,4.05-8.64,9.55q.15,28.38,0,56.77c0,5.44,4.62,9.63,8.88,9.55,4-.06,8.79-4,8.62-9.55-.13-4.07,0-8.14-.06-12.2,0-1.42.39-1.81,1.79-1.78,4.14.1,8.3.1,12.44,0,1.43,0,1.79.41,1.77,1.8-.08,5,.26,10-.1,14.93a23.62,23.62,0,0,1-14.5,20.12,24,24,0,0,1-20,0,24.64,24.64,0,0,1-14.28-17.63,31.74,31.74,0,0,1-.47-7.34Q313.83,475,313.85,461.78Z" transform="translate(-13.7 -229.85)"/><path d="M522,461.63c0-16.43,0-32.86,0-49.29,0-1.86.44-2.32,2.3-2.29,8.21.11,16.44-.21,24.64.11,10.8.42,20.11,7.73,21.9,19.22,1.18,7.64.84,15.38.36,23-.67,10.66-9.51,20.05-19.89,21.54-3.8.54-7.55.29-11.33.36-1.61,0-2,.42-2,2.05.07,11.7,0,23.4.09,35.1,0,1.86-.43,2.37-2.3,2.29-3.89-.16-7.8-.13-11.7,0-1.64,0-2-.43-2-2.05C522,495,522,478.31,522,461.63Zm15.94-19.16c0,4.89,0,9.77,0,14.65,0,1.36.28,1.88,1.74,1.81,2.65-.12,5.3,0,8,0a8.81,8.81,0,0,0,8.26-8.2c0-5.47,0-10.93,0-16.4a7.88,7.88,0,0,0-5.7-7.75c-3.45-1.08-7-.22-10.52-.53-1.48-.13-1.75.47-1.73,1.81C538,432.7,537.94,437.59,537.94,442.47Z" transform="translate(-13.7 -229.85)"/><path d="M265,357.44c0-7.72-.09-15.44,0-23.16A19.69,19.69,0,0,1,287.13,315a19.91,19.91,0,0,1,17.28,19.87c-.08,15.52.08,31-.07,46.56-.08,8.83-7.64,16.83-15.58,18.24-9,1.61-15.7-1.64-20.73-8.85a16.69,16.69,0,0,1-3-9.51C265,373.37,265,365.4,265,357.44Zm26.4.23c0-7.88,0-15.75,0-23.62,0-3.41-3.35-6.41-6.79-6.67-3.11-.24-7.11,3.13-7.12,6.33,0,15.74-.1,31.49,0,47.23,0,4.47,4.29,7,7.38,6.81s6.7-4.16,6.6-7.22C291.27,372.92,291.44,365.29,291.44,357.67Z" transform="translate(-13.7 -229.85)"/><path d="M289,469.83c0,13.86,0,27.72,0,41.58,0,1.8-.34,2.41-2.26,2.32-3.81-.18-7.64-.16-11.45,0-1.82.07-2.34-.36-2.32-2.27.11-10.2.05-20.41.05-30.62,0-17.67,0-35.35.05-53,0-1.8-.33-2.41-2.26-2.33-4.31.17-8.63,0-12.95.08-1.36,0-1.84-.29-1.8-1.75.1-4.06.07-8.13,0-12.19,0-1.17.26-1.55,1.49-1.55q23.16.06,46.31,0c1.16,0,1.57.26,1.55,1.5-.08,4.15-.11,8.3,0,12.44.05,1.51-.65,1.55-1.76,1.54-4.15,0-8.31.09-12.45-.06-1.83-.07-2.33.37-2.31,2.27C289,441.78,289,455.81,289,469.83Z" transform="translate(-13.7 -229.85)"/><path d="M543.91,357.24c0,7.55.06,15.1,0,22.65,0,4.78,3.21,7.72,7.16,7.78s7.47-2.8,7.32-7.87c-.09-3.06,0-6.14,0-9.2,0-1.29.14-1.94,1.69-1.88,3.23.13,6.47,0,9.7.06.65,0,1.65-.4,1.58.9-.31,5.71.87,11.52-1,17.13-3.31,9.92-14.37,15.51-24.41,12.61a20.59,20.59,0,0,1-14.49-19.75c.23-15.26.05-30.53.07-45.8A19.92,19.92,0,0,1,546.67,315c11.66-2.73,22.51,4.69,24.53,16.62.62,3.63.08,7.45.12,11.18,0,.93-.41,1.08-1.2,1.07-3.49,0-7-.05-10.46,0-1.17,0-1.34-.46-1.32-1.46,0-2.49-.07-5,0-7.47.21-5.07-3.3-8-7.17-8s-7.44,2.75-7.33,8.15C544,342.47,543.91,349.85,543.91,357.24Z" transform="translate(-13.7 -229.85)"/><path d="M462.24,357.56c0-13.1,0-26.2,0-39.3,0-1.77.3-2.38,2.25-2.34,6.3.15,12.61-.12,18.9.1,9.15.32,17,5.62,18.19,15.56.91,7.56,1.65,15.28-.57,22.66-2.08,6.93-7.21,11.2-14.28,13.06a19.82,19.82,0,0,1-4.84.47c-2.3,0-5.43-.79-6.7.38-1.47,1.36-.42,4.52-.43,6.89-.06,7.3-.11,14.6,0,21.89,0,1.94-.54,2.35-2.34,2.25a72.36,72.36,0,0,0-8.2,0c-1.69.1-2-.5-2-2.06C462.27,383.93,462.24,370.75,462.24,357.56Zm12.45-15.69c0,1.91-.06,3.82,0,5.73.1,2.53-1.12,6,.49,7.34s4.9.42,7.46.36a7,7,0,0,0,7-6.95c.07-4.48.05-9,0-13.44a6.93,6.93,0,0,0-4.62-6c-2.82-1-5.72-.17-8.56-.47-1.43-.15-1.81.37-1.78,1.77C474.76,334.07,474.69,338,474.69,341.87Z" transform="translate(-13.7 -229.85)"/><path d="M386,316c-2.61,7.41-5.22,14.68-7.74,22-2.95,8.52-5.78,17.09-8.79,25.59a7.33,7.33,0,0,0-.37,2.61c0,10.29-.07,20.58,0,30.87,0,1.77-.45,2.25-2.18,2.15a82.32,82.32,0,0,0-8.46,0c-1.59.08-1.9-.42-1.89-1.93.07-10-.06-20.08.08-30.12,0-4.28-1.83-8-3.13-11.8-2.6-7.63-5.33-15.22-7.9-22.85-1.84-5.45-3.87-10.83-5.9-16.5,4.35,0,8.52.06,12.69,0,1.17,0,1.44.74,1.65,1.41,2.94,9.43,5.82,18.88,8.79,28.56,2.94-9.52,5.85-18.8,8.65-28.12a2.14,2.14,0,0,1,2.52-1.85C378,316.05,381.89,316,386,316Z" transform="translate(-13.7 -229.85)"/><path class="cls-1" d="M181.56,273.64a39.74,39.74,0,0,1,7,2.19c1.28.45,1.31,1.64,1.68,2.59a30.46,30.46,0,1,0-1.23-17.15c-.41,1.88-.91,2.46-2.67,1.64a3.44,3.44,0,0,0-.72-.17c-4.48-1.08-4.48-1.08-3.15-5.6a37.76,37.76,0,0,1,73.48,4c3.69,20.39-10.12,40-30.79,43.76C204.83,308.6,185.11,294.6,181.56,273.64Z" transform="translate(-13.7 -229.85)"/><path class="cls-2" d="M89.27,270.47c-.69,12.73-7.72,24.27-21.72,31.38-1.63.82-2.89,1.24-2.28-1.45a10.86,10.86,0,0,0,.13-2,6.81,6.81,0,0,1,3.37-5.8A30.13,30.13,0,0,0,80.2,257.47c-4.58-13.09-17.07-21.05-31.55-20.11-12.72.82-24,10.89-26.91,23.94-4,18.37,10,36.33,28.77,36.76,3.26.07,3.26.07,3.19,3.45-.08,4.14-.08,4.14-4.08,3.9a38,38,0,0,1-34.83-28.92c-5.42-21.65,10-43.77,32.15-46.25C69.7,227.68,89.3,245,89.27,270.47Z" transform="translate(-13.7 -229.85)"/><path d="M314.34,357.56c0-13.11.05-26.22,0-39.33,0-1.84.39-2.43,2.28-2.3a57.15,57.15,0,0,0,8,0c1.87-.12,2.31.42,2.3,2.29-.08,18.5,0,37,0,55.51,0,3.74.07,7.47,0,11.2,0,1.4.35,1.81,1.77,1.79,6.14-.07,12.28,0,18.42-.06,1.4,0,1.84.35,1.79,1.77-.11,3.07-.09,6.14,0,9.21,0,1.2-.32,1.53-1.52,1.53-10.46-.05-20.91-.08-31.37,0-1.84,0-1.49-1-1.49-2Q314.33,377.35,314.34,357.56Z" transform="translate(-13.7 -229.85)"/><path class="cls-3" d="M149,302.62a25.77,25.77,0,0,1,.49-7.08,2.93,2.93,0,0,1,1.66-2c11.29-7.26,16.52-19.71,13.74-32.62-2.63-12.17-12.88-21.54-25.68-23.47-15.52-2.34-30.53,8.27-33.82,24.07-.36,1.77-.9,2-2.35,1.47a6.33,6.33,0,0,0-1.22-.27c-4.24-.79-4.24-.79-3.07-5.1,4.6-16.94,21.08-28.8,38.44-27.66a37.76,37.76,0,0,1,35.36,32.59C174.82,279.8,164.87,296.89,149,302.62Z" transform="translate(-13.7 -229.85)"/><path class="cls-4" d="M163.34,266.73c.44,2.52-.18,4.79-.47,7.08-.18,1.39-1.35,1.78-2.29,2.43-10.74,7.42-15.4,17.79-13.34,30.52,2,12.47,9.65,20.71,21.84,24.26a30.11,30.11,0,0,0,37.69-22.58c.41-1.87.91-2.86,2.94-1.95a5.3,5.3,0,0,0,1,.18c4.08.82,4.08.82,2.93,5a37.76,37.76,0,1,1-52.36-44.14C161.92,267.24,162.61,267,163.34,266.73Z" transform="translate(-13.7 -229.85)"/><path class="cls-5" d="M79.68,266.8c.43,2.46-.1,4.73-.44,7-.19,1.27-1.2,1.71-2.09,2.29-16.7,11-19,34-4.55,47.67,8.54,8.1,18.87,10.33,30,7s17.89-11,20.55-22.27c.43-1.82.86-2.92,2.94-2a5,5,0,0,0,1,.18c4.11.83,4.11.83,2.93,5-5,17.82-21.28,29-40.15,27.64C72.92,338.1,58.31,323.87,56,306.39a38.05,38.05,0,0,1,22.28-39.16A12.35,12.35,0,0,1,79.68,266.8Z" transform="translate(-13.7 -229.85)"/><path d="M522.5,357.68c0,13.11,0,26.22,0,39.34,0,1.74-.39,2.26-2.16,2.16-2.89-.16-5.81-.11-8.71,0-1.31,0-1.67-.35-1.65-1.65.08-4.9,0-9.79,0-14.69,0-21.49,0-43-.05-64.48,0-1.93.45-2.55,2.42-2.42a60.41,60.41,0,0,0,8,0c1.76-.1,2.18.42,2.16,2.17C522.46,331.29,522.5,344.49,522.5,357.68Z" transform="translate(-13.7 -229.85)"/><path d="M85.13,400.63c-6,.24-10.28-3.64-12.35-9.23-.68-1.83-.73-3.77-1.39-5.58-.4-1.1.47-1.07,1.27-1.14,1.94-.18,3.91.44,5.85-.37,1-.41.69.55.79,1.05a16.69,16.69,0,0,0,1.59,4.71c1.1,2.11,2.75,3,5,2.53a6.07,6.07,0,0,0,4.37-5.2c.29-3.71-1.72-6.35-4.26-8.59-4-3.55-8.34-6.85-11.24-11.42-4.4-6.95-3.13-16.23,3.61-20,6.91-3.83,17.06-1.74,19.34,9.7.24,1.23-.75,1.48-1.38,1.58a25.25,25.25,0,0,0-4.94,1c-.53.2-1.06.13-1.18-.76a10.83,10.83,0,0,0-1-2.69c-1.16-2.52-3-3.6-5.45-2.94s-3.29,2.57-3.47,4.75c-.41,4.91,2.36,8.33,5.89,11.11,4.38,3.44,8.25,7.14,10.71,12.33C100.58,389.27,96.43,401.06,85.13,400.63Z" transform="translate(-13.7 -229.85)"/><path d="M225.75,362.22c-.27,6,.89,11,.43,16-.57,6.42-.49,12.84-.45,19.27,0,1.3-.35,1.61-1.64,1.66-3.68.15-7.39-.58-11.05.39-1,.25-1.06-.81-1.14-1.23a28,28,0,0,1-.61-5.06c-.07-5.22,0-10.45,0-15.67a149.59,149.59,0,0,0-1-19.39c-.32-2.57.65-5,.52-7.58a1.12,1.12,0,0,1,1.2-1.28c3.17-.09,6.21-1.24,9.44-1.05s3.72.2,3.72,3.58C225.13,355.68,226.27,359.4,225.75,362.22Z" transform="translate(-13.7 -229.85)"/><path d="M173.42,380c0-5.56-.27-11.13.08-16.66.29-4.61.42-9.2.39-13.81,0-1,.35-1.25,1.29-1.24,3.32,0,6.63.05,9.95,0,1,0,1.36.32,1.23,1.27-1.13,8.93.16,17.94-1,26.87a11.22,11.22,0,0,0,0,1.74c.24,6.85-.33,13.68-.46,20.52,0,1.33-.55,1.43-1.62,1.43-3,0-5.86-.84-8.83-.53-1.45.15-1-1-1-1.69C173.41,392,173.42,386,173.42,380Z" transform="translate(-13.7 -229.85)"/><path d="M111.17,377c0-6.89-.06-13.77,0-20.66,0-1.62-.41-2.29-2-2a2.78,2.78,0,0,1-.5,0c-6.59,0-6.56,0-6-6.73.08-.95.32-1.26,1.28-1.25q11.2,0,22.41,0c1,0,1.38.3,1.24,1.27a1.92,1.92,0,0,0,0,.24c.31,6.44.31,6.52-6.23,6.42-1.89,0-2.29.47-2.28,2.31.08,13.77,0,27.54.09,41.31,0,1.87-.43,2.33-2.29,2.3-5.72-.12-5.72,0-5.72-5.79Z" transform="translate(-13.7 -229.85)"/><path d="M157,360.94c.71,10.23.36,20.48.59,30.72,0,2.17.38,4.39.41,6.6,0,.8.05,1.48-1.11,1.39-2.78-.21-5.57.31-8.35-.45-.89-.24-1.05-.53-1-1.26,0-.17,0-.33,0-.5-.17-15.8-.72-31.59-.55-47.39,0-1.93.55-2.48,2.34-2.22a18.63,18.63,0,0,0,2.48,0c5.05,0,5.08,0,5.18,5.13C157,355.63,157,358.28,157,360.94Z" transform="translate(-13.7 -229.85)"/><path class="cls-6" d="M98,273.82l2.45.45c3.36.66,5.46,2.1,7.06,5.71,5.21,11.71,14.69,17.74,27.58,18,1.87,0,2.76.31,2.15,2.35a4.92,4.92,0,0,0-.07,1.49c0,3.7,0,3.7-3.68,3.53a38,38,0,0,1-35.15-29.31C98.17,275.43,98.12,274.78,98,273.82Z" transform="translate(-13.7 -229.85)"/><path class="cls-7" d="M175,267.66c0-3.57,0-3.57,3.62-3.55,16.58.12,32.38,13.39,35.5,29.75.32,1.67-.18,1.94-1.62,1.4a9.37,9.37,0,0,0-1.68-.41c-2.84-.52-4.46-1.91-5.72-4.83-5.19-12-14.73-18.13-27.74-18.68-2-.08-2.86-.34-2.37-2.44A5.7,5.7,0,0,0,175,267.66Z" transform="translate(-13.7 -229.85)"/><path class="cls-8" d="M91.37,267.81c0-3.72,0-3.72,3.78-3.7,16.44.12,32.59,13.71,35.37,29.72.28,1.59-.18,2-1.66,1.42a6.06,6.06,0,0,0-1.21-.26c-3.07-.6-4.91-2-6.31-5.24-5.13-11.84-14.65-17.87-27.46-18.38-2.51-.1-2.85-.81-2.51-2.82A4.57,4.57,0,0,0,91.37,267.81Z" transform="translate(-13.7 -229.85)"/><path d="M229.19,394.88v-1.25c0-3.68.06-3.36,3.75-4,7.6-1.35,10.49-4.24,11.11-12.14.15-1.82.46-2.59,2.32-2.24a6.09,6.09,0,0,0,.74,0c2,.17,4.92-.89,5.63.41,1,1.79.76,4.59.27,6.79-1.73,7.73-6,13.55-13.73,16.26-1.8.63-3.79,1.27-5.8.45-.15,0-.34,0-.5,0-1.25-.33-3,1-3.45.33C228.61,398.16,229.34,396.27,229.19,394.88Z" transform="translate(-13.7 -229.85)"/><path d="M233,348.35c3.16.33,7,2.64,10.62,5.3,5.44,4,7.59,9.89,8.91,16.19.23,1.12.18,2-1.53,2a36.18,36.18,0,0,0-4.83.52c-2.13.23-2.78-.54-3.12-2.5a13.31,13.31,0,0,0-6.22-9.58,14.41,14.41,0,0,0-5.86-1.88c-1.08-.15-1.32-.41-1.36-1.45a31.49,31.49,0,0,0-.58-5.31C228.39,348.33,228.31,348.35,233,348.35Z" transform="translate(-13.7 -229.85)"/><path d="M188.25,374.65c6.53,3,12.74,5.93,19,8.75a2.18,2.18,0,0,1,1.52,2.66c-.49,2.69-.94,5.39-1.53,8.06-.25,1.13-1,1.06-2.09.75a169.19,169.19,0,0,1-16.07-5.52c-1.13-.45-1.2-.91-1.24-1.86C187.67,383.3,188.79,379.18,188.25,374.65Z" transform="translate(-13.7 -229.85)"/><path d="M187.82,371.58c.3-4.16-.41-8.24.47-12.32a2.68,2.68,0,0,1,1.15-1.84q5.16-3.81,10.24-7.72c1.38-1.07,2.65-1.07,3.85.16a25,25,0,0,1,4.56,5.39c.91,1.66.84,2.35-.77,3.32-6.13,3.7-11.82,8-17.66,12.15A5.61,5.61,0,0,1,187.82,371.58Z" transform="translate(-13.7 -229.85)"/><path d="M143.54,354.6a15.64,15.64,0,0,0,0,2.5c.34,1.93-.53,2.63-2.28,2.18-2.59-.68-5.2-.46-7.81-.45-1.05,0-1.4-.26-1.42-1.37-.06-2.69.42-5.4-.44-8-.21-.63,0-1.15.88-1.06,3,.34,6-.64,9-.54,1.14,0,1.36.34,1.59,1.48A29.85,29.85,0,0,1,143.54,354.6Z" transform="translate(-13.7 -229.85)"/><path d="M169.81,348.35c1,2.73.24,5.48,1,8.13.4,1.46.43,2.52-1.69,2.36-3-.22-6.06.2-9.06-.5-.63-.15-1.07-.14-1.06-.95,0-2.54-.71-5-.53-7.57.08-1.2.39-1.52,1.56-1.5C163.37,348.39,166.76,348.35,169.81,348.35Z" transform="translate(-13.7 -229.85)"/></svg>