<svg id="Layer_1" data-name="Layer 1" xmlns="http://www.w3.org/2000/svg" viewBox="0 0 889.43 455.12"><defs><style>.cls-1{fill:#fff;}.cls-2{fill:#bb2f34;}.cls-3{fill:#528ebe;}.cls-4{fill:#08040a;}.cls-5{fill:#60a45e;}.cls-6{fill:#e0c338;}.cls-7{fill:#08050a;}.cls-8{fill:#61a45e;}.cls-9{fill:#e0c339;}</style></defs><title>logo_tkdob</title><path class="cls-1" d="M989.48,567.84c.74-3.31,1.57-6.6,2.19-9.94,1.94-10.47,3.72-21,5.7-31.44s4.24-20.85,6.2-31.31c2-10.83,3.82-21.71,6.23-32.48.65-2.86,1-5.82,1.53-8.72.39-2.25,1-2.65,3.11-2.63,9.65.1,19.31.12,29,0,2.31,0,3.13.37,3.13,3q-.13,79.59,0,159.17c0,2.3-.35,3.22-3,3.13-6.34-.22-12.71-.31-19,0-3.28.17-3.52-1.12-3.51-3.81.09-31.09,0-62.18,0-93.28v-4.27l-.56-.06c-3.52,17.27-6.94,34.57-10.59,51.81-3.26,15.42-6.8,30.77-9.52,46.29-.39,2.2-1.31,3.5-4,3.3a68.86,68.86,0,0,0-13.08,0c-3.8.46-4.44-1.63-5.06-4.34Q974,594.16,969.87,576q-6.18-26.91-12.35-53.81a34.18,34.18,0,0,0-2.35-6.91v4c0,31-.08,61.92.1,92.88,0,3.79-1.14,4.52-4.56,4.35a140.3,140.3,0,0,0-16.66,0c-3.84.27-4.36-1.18-4.36-4.57q.16-78.19,0-156.39c0-3.8,1.18-4.44,4.58-4.35,8.85.23,17.74.39,26.58-.06,4.28-.22,5.67,1.19,6.31,5.15,3.26,20.12,7.69,40,11.78,60,3.49,17.09,6.53,34.27,9.77,51.41Z" transform="translate(-253.57 -164)"/><path class="cls-1" d="M332,481.58q0,66.66.08,133.32c0,3.28-.73,4.14-4,4.07q-16.65-.36-33.33,0c-3.28.07-4.07-.73-4.07-4.05q.17-101.38.16-202.76c0-3.41-.55-4.7-4.36-4.57-9.38.33-18.78,0-28.17.16-2.42,0-3.42-.36-3.35-3.14.22-7.8.14-15.61,0-23.41,0-2.05.43-2.53,2.66-3,19.41-4.16,34.91-13.92,44.26-32,.84-1.63,1.92-2,3.63-2,7.67.09,15.35.23,23,0,3.17-.12,3.55,1,3.55,3.76Q331.88,414.72,332,481.58Z" transform="translate(-253.57 -164)"/><path class="cls-1" d="M412.57,529.68a30.84,30.84,0,0,1,16.62,17.09,62.37,62.37,0,0,1,3.74,32.7c-1.12,8.06-3.39,15.52-8.18,21.95a35.39,35.39,0,0,1-22.66,14.24c-11,2-22.06.45-33.09.81-5.29.17-10.59-.2-15.87.11-3.24.19-3.78-1-3.78-3.92q.13-78.75.07-157.49a10.53,10.53,0,0,0,0-1.59c-.23-1.7.4-2.26,2.18-2.25,13.09.07,26.2-.4,39.27.17a42.67,42.67,0,0,1,27.77,11.62c6.17,5.79,9.23,13.59,10.83,21.65,1.8,9.07,1.78,18.33-1.46,27.24C425.23,519.61,421,526,412.57,529.68Zm-36.16,37.41c0,7.39.06,14.78,0,22.17,0,2,.39,2.83,2.57,2.68,2.89-.2,5.8,0,8.71-.06,7-.07,13.15-4.88,15.82-11.42,3-7.41,2.89-15,1.39-22.44-1.4-7-5-12.65-12.7-14.69-4.44-1.17-8.85-.2-13.23-.69-2.22-.25-2.59.72-2.56,2.67C376.47,552.57,376.41,559.83,376.41,567.09Zm0-70.45c0,3.57-.1,7.14,0,10.7s-1.55,8.18.72,10.18c1.95,1.72,6.52.6,9.93.5,5.29-.15,9.58-2,12.56-6.8,4.18-6.69,4.25-13.7,3-21.15s-5.28-12-12.17-13.7c-3.6-.91-7.6-.18-11.4-.44-2.36-.16-2.81.75-2.76,2.89C376.5,484.76,376.41,490.7,376.41,496.64Z" transform="translate(-253.57 -164)"/><path class="cls-1" d="M908.28,395.56c2.4-13.22,4.73-26.45,7.22-39.66,1.66-8.81,3.73-17.54,5.3-26.37s3.11-17.43,4.86-26.11c.42-2.09,1.18-2.13,2.73-2.12,7.54,0,15.09.1,22.63,0,2.12,0,2.61.62,2.6,2.66q-.07,63.72,0,127.42c0,2.13-.63,2.66-2.66,2.6-4.63-.14-9.28-.24-13.89,0-2.87.17-3.42-.77-3.41-3.49.11-24.61.06-49.22.06-73.83V352.7l-.41-.06c-1.71,8.08-3.44,16.16-5.14,24.24q-3.82,18.24-7.6,36.48c-1.2,5.77-2.45,11.53-3.47,17.33-.4,2.3-1.19,3.39-3.71,3.26-3.57-.2-7.15-.09-10.72,0-1.79,0-2.67-.37-3.17-2.48-4.88-20.9-10-41.74-15-62.61-1.29-5.44-2.34-10.93-4-16.33v25.32c0,17.34-.13,34.67.11,52,.05,3.69-1.08,4.39-4.37,4.16a90.87,90.87,0,0,0-11.9,0c-2.78.16-3.78-.37-3.77-3.54q.2-62.91,0-125.83c0-2.42.35-3.43,3.14-3.35,7.53.22,15.08.17,22.62,0,2.52-.05,3.26,1,3.71,3.27,3.32,17.11,6.84,34.18,10.17,51.28,2.57,13.22,5,26.47,7.45,39.7Z" transform="translate(-253.57 -164)"/><path class="cls-1" d="M547.89,534.36c0-15.07.15-30.15,0-45.22a39.46,39.46,0,0,1,29.7-39c13.44-3.46,25.7-.25,36.14,9.39,9.16,8.47,12.9,18.88,12.85,31.16-.14,29.09-.33,58.18.05,87.27.24,18.77-12,35.12-29.44,39.62-13.29,3.41-25.44.86-35.88-8.67-9.63-8.79-13.76-19.55-13.45-32.5C548.15,562.4,547.89,548.38,547.89,534.36Zm24.61-1.24c0,15.07.06,30.13,0,45.19-.05,9.42,6.72,15.25,14.5,15.12s14.13-5.76,14.12-15.08q-.06-44.8,0-89.59c0-9.42-6.72-15.25-14.5-15.12s-14.15,5.76-14.12,15.08C572.54,503.52,572.5,518.32,572.5,533.12Z" transform="translate(-253.57 -164)"/><path class="cls-1" d="M451,534.37c0-15.07.15-30.15,0-45.22a39.45,39.45,0,0,1,29.69-39c13.44-3.46,25.7-.25,36.14,9.39,9.16,8.46,12.91,18.87,12.85,31.15-.14,29.09-.33,58.19.05,87.27.25,18.77-12,35.13-29.43,39.62-13.29,3.42-25.44.87-35.88-8.66-9.64-8.78-13.77-19.54-13.46-32.49C451.29,562.41,451,548.39,451,534.37Zm53.19-.9c0-15.06,0-30.13,0-45.19,0-8.88-6.24-14.52-14.14-14.63s-14.42,5.75-14.42,14.76q0,45.19,0,90.38c0,8.88,6.24,14.52,14.13,14.63s14.42-5.75,14.43-14.76Z" transform="translate(-253.57 -164)"/><path class="cls-1" d="M912.1,616.5c-8,0-15.92-.09-23.84.06a2.57,2.57,0,0,1-2.87-2.41c-1.19-7.38-2.2-14.78-3.26-22.18-.54-3.83-1.11-7.65-1.57-11.49-.21-1.73-1.21-2.11-2.72-2.1-7.41,0-14.81,0-22.22,0-1.4,0-1.9.27-2.14,1.89-1.72,11.57-3.69,23.11-5.43,34.68-.23,1.59-.93,1.56-2,1.56-7.4,0-14.81,0-22.21,0-1.74,0-2.12-.33-1.77-2.27,1.91-10.63,3.5-21.31,5.34-32,1.74-10,3.71-19.92,5.48-29.9,1.42-8,2.72-16,4-23.95,1.37-8.51,2.59-17,4-25.54,1.47-8.73,3.17-17.42,4.7-26.14,1.37-7.85,2.75-15.69,3.9-23.57.25-1.66.82-1.86,2.18-1.85q15.47,0,30.94,0c1.2,0,1.73.16,2,1.64,1.18,7.62,2.58,15.2,3.9,22.79,1.5,8.6,3,17.19,4.48,25.8s2.82,17.26,4.26,25.88c1.48,8.87,3,17.72,4.52,26.59,1.41,8.36,2.79,16.73,4.21,25.09,1.51,8.86,3.07,17.71,4.55,26.58C911.08,609.13,911.52,612.57,912.1,616.5Zm-35.81-62.72c-3-21-6-41.81-9-62.57-2.12,9.84-3.67,19.51-5,29.21-1.44,10.35-2.48,20.76-4.19,31.07-.37,2.26-.2,2.33,1.66,2.31C865.19,553.74,870.6,553.78,876.29,553.78Z" transform="translate(-253.57 -164)"/><path class="cls-1" d="M732.08,533.77c0-15.22.19-30.44-.05-45.65-.28-18.26,14.73-35.52,32.25-38.46,13.57-2.29,25.18,1.31,34.73,10.54a37,37,0,0,1,11.64,26.06c.17,6.35,0,12.7.07,19.05,0,1.86-.44,2.5-2.4,2.47-6.87-.12-13.76-.17-20.63,0-2.43.07-2.46-1.06-2.44-2.83.06-5.42-.14-10.85.06-16.27.33-8.7-7.35-15.36-14.12-15.25-6.37.1-13.81,6.46-13.76,15.23q.23,45.24,0,90.5c0,8.68,7.37,15.35,14.16,15.24,6.35-.11,14-6.46,13.73-15.24-.2-6.48.06-13-.09-19.45-.05-2.27.62-2.88,2.85-2.83q9.91.23,19.84,0c2.28,0,2.86.65,2.82,2.86-.13,7.94.41,15.91-.15,23.81a37.69,37.69,0,0,1-23.13,32.07c-10.52,4.49-21.35,4.79-31.84,0-12.14-5.54-19.69-15-22.77-28.1-.92-3.89-.75-7.79-.75-11.7Q732.06,554.81,732.08,533.77Z" transform="translate(-253.57 -164)"/><path class="cls-1" d="M1063.94,533.53c0-26.2,0-52.39-.08-78.59,0-3,.69-3.69,3.66-3.65,13.09.18,26.21-.34,39.28.18,17.23.67,32.07,12.32,34.91,30.64,1.89,12.18,1.35,24.52.59,36.67-1.07,17-15.17,32-31.72,34.33-6.06.87-12,.48-18.06.58-2.57,0-3.26.67-3.24,3.27.12,18.65,0,37.31.14,56,0,3-.68,3.78-3.66,3.66-6.21-.26-12.44-.22-18.65,0-2.62.09-3.24-.68-3.23-3.25C1064,586.72,1063.94,560.12,1063.94,533.53Zm25.4-30.55c0,7.79.08,15.58,0,23.36,0,2.17.46,3,2.78,2.88,4.22-.19,8.45,0,12.67-.06,6.69-.08,13.11-6.42,13.17-13.08q.09-13.08,0-26.14a12.54,12.54,0,0,0-9.09-12.35c-5.49-1.73-11.19-.37-16.77-.86-2.36-.2-2.79.75-2.76,2.89C1089.41,487.4,1089.34,495.19,1089.34,503Z" transform="translate(-253.57 -164)"/><path class="cls-1" d="M654.28,367.41c0-12.3-.16-24.61,0-36.91a31.4,31.4,0,0,1,35.18-30.69c15.62,1.89,27.62,15.61,27.54,31.68-.13,24.74.13,49.48-.1,74.22-.13,14.08-12.18,26.83-24.84,29.09-14.35,2.56-25-2.62-33.06-14.12a26.71,26.71,0,0,1-4.71-15.17C654.2,392.81,654.28,380.11,654.28,367.41Zm42.07.37c0-12.55,0-25.1,0-37.65,0-5.44-5.34-10.21-10.82-10.64-5-.38-11.34,5-11.36,10.09-.08,25.1-.16,50.2,0,75.3.06,7.14,6.85,11.14,11.77,10.86,5.14-.31,10.67-6.64,10.51-11.5C696.09,392.09,696.35,379.93,696.35,367.78Z" transform="translate(-253.57 -164)"/><path class="cls-1" d="M692.39,546.6c0,22.09-.06,44.19.07,66.28,0,2.88-.54,3.85-3.61,3.7-6.08-.28-12.18-.25-18.25,0-2.91.12-3.74-.57-3.7-3.61.17-16.27.08-32.55.08-48.82,0-28.18,0-56.36.07-84.54,0-2.86-.52-3.83-3.6-3.71-6.87.27-13.76,0-20.63.14-2.18,0-3-.48-2.89-2.79.16-6.48.12-13,0-19.45,0-1.85.43-2.47,2.39-2.47q36.9.1,73.82,0c1.84,0,2.51.41,2.47,2.38-.12,6.62-.17,13.23,0,19.84.07,2.41-1,2.47-2.82,2.45-6.61-.06-13.23.14-19.84-.1-2.92-.1-3.71.6-3.69,3.63C692.45,501.88,692.39,524.24,692.39,546.6Z" transform="translate(-253.57 -164)"/><path class="cls-1" d="M1098.87,367.09c0,12,.09,24.08,0,36.11-.08,7.63,5.12,12.31,11.42,12.42,6.1.1,11.91-4.47,11.67-12.55-.15-4.89.06-9.79-.07-14.68,0-2.05.22-3.08,2.69-3,5.15.2,10.32,0,15.47.08,1,0,2.63-.62,2.52,1.44-.49,9.11,1.39,18.37-1.6,27.31-5.28,15.82-22.91,24.73-38.92,20.1-13.44-3.89-23.31-17.2-23.09-31.48.37-24.33.08-48.68.11-73,0-14.18,10.63-26.91,24.22-30.09,18.6-4.35,35.91,7.48,39.12,26.49,1,5.79.12,11.88.19,17.83,0,1.49-.66,1.72-1.92,1.71-5.55,0-11.11-.09-16.66,0-1.88,0-2.15-.74-2.12-2.34.09-4-.1-7.94.06-11.9.32-8.09-5.27-12.7-11.44-12.78-6-.08-11.86,4.37-11.67,13C1099.06,343.55,1098.87,355.32,1098.87,367.09Z" transform="translate(-253.57 -164)"/><path class="cls-1" d="M968.67,367.61c0-20.88.05-41.77-.07-62.65,0-2.83.47-3.81,3.58-3.73,10,.23,20.1-.2,30.13.15,14.59.52,27.08,9,29,24.81,1.46,12.05,2.63,24.36-.91,36.13-3.32,11-11.48,17.85-22.76,20.83a32,32,0,0,1-7.71.73c-3.68.08-8.66-1.25-10.69.61-2.35,2.17-.66,7.21-.69,11-.09,11.64-.17,23.27.05,34.9.06,3.09-.86,3.75-3.72,3.58a114.15,114.15,0,0,0-13.08,0c-2.7.15-3.2-.81-3.19-3.3C968.71,409.65,968.67,388.63,968.67,367.61Zm19.84-25c0,3-.09,6.09,0,9.13.16,4-1.78,9.6.78,11.7s7.82.66,11.9.58a11.19,11.19,0,0,0,11.08-11.09c.12-7.14.08-14.28,0-21.42,0-4.1-3.33-8.22-7.37-9.62-4.49-1.56-9.12-.26-13.65-.74-2.26-.24-2.88.58-2.83,2.82C988.61,330.17,988.51,336.39,988.51,342.6Z" transform="translate(-253.57 -164)"/><path class="cls-1" d="M847.18,301.32c-4.17,11.81-8.33,23.41-12.35,35-4.7,13.59-9.21,27.25-14,40.8a12,12,0,0,0-.59,4.16c0,16.41-.1,32.82,0,49.22,0,2.82-.71,3.58-3.48,3.43a126.46,126.46,0,0,0-13.49,0c-2.52.13-3-.67-3-3.07.11-16-.09-32,.12-48,.09-6.82-2.91-12.72-5-18.81-4.15-12.16-8.49-24.25-12.6-36.43-2.92-8.68-6.16-17.26-9.4-26.3,6.94,0,13.59.1,20.23-.07,1.87-.05,2.31,1.19,2.63,2.25,4.7,15,9.29,30.1,14,45.54,4.69-15.17,9.32-30,13.79-44.83.68-2.28,1.66-3,4-2.95C834.34,301.43,840.56,301.32,847.18,301.32Z" transform="translate(-253.57 -164)"/><path class="cls-2" d="M521.18,233.81c4.18.7,7.66,2.23,11.23,3.5,2,.72,2.09,2.62,2.67,4.13,7.68,20,26.79,32.29,48.59,31.21,20.22-1,38.21-15.56,43.59-35.28a48.51,48.51,0,1,0-94.14-23.28c-.64,3-1.45,3.94-4.25,2.62a5.5,5.5,0,0,0-1.15-.27c-7.14-1.72-7.14-1.72-5-8.92,7.92-26.86,33.52-45,61.12-43.42a60.55,60.55,0,0,1,56,49.81c5.87,32.5-16.15,63.8-49.1,69.76C558.27,289.55,526.84,267.24,521.18,233.81Z" transform="translate(-253.57 -164)"/><path class="cls-3" d="M374.05,228.77c-1.1,20.29-12.31,38.68-34.63,50-2.59,1.32-4.61,2-3.63-2.31a19.36,19.36,0,0,0,.21-3.16c.2-4,1.71-6.76,5.37-9.24a48.05,48.05,0,0,0,18.22-56c-7.3-20.87-27.22-33.56-50.3-32.07C289,177.29,271,193.34,266.38,214.14c-6.45,29.29,16,57.92,45.87,58.61,5.2.12,5.2.12,5.09,5.5-.12,6.6-.12,6.6-6.5,6.21a60.58,60.58,0,0,1-55.53-46.09c-8.64-34.52,15.86-69.78,51.24-73.75C342.85,160.55,374.09,188.16,374.05,228.77Z" transform="translate(-253.57 -164)"/><path class="cls-1" d="M732.87,367.61c0-20.9.07-41.8-.07-62.7,0-2.94.63-3.88,3.64-3.67a91.09,91.09,0,0,0,12.69,0c3-.2,3.68.67,3.67,3.65-.13,29.5-.08,59-.08,88.5,0,6,.1,11.91-.05,17.86-.06,2.23.56,2.88,2.82,2.86,9.79-.13,19.58,0,29.37-.11,2.23,0,2.93.56,2.85,2.83-.17,4.89-.14,9.79,0,14.68,0,1.91-.52,2.44-2.43,2.43-16.67-.07-33.34-.12-50,0-2.93,0-2.38-1.62-2.38-3.25Q732.87,399.16,732.87,367.61Z" transform="translate(-253.57 -164)"/><path class="cls-4" d="M469.25,280a40.65,40.65,0,0,1,.78-11.28c.29-1.7,1.4-2.38,2.64-3.17,18-11.59,26.34-31.43,21.9-52-4.19-19.41-20.53-34.35-40.93-37.42-24.74-3.73-48.67,13.19-53.92,38.37-.59,2.82-1.44,3.22-3.76,2.34a11.25,11.25,0,0,0-1.93-.43c-6.77-1.25-6.77-1.25-4.9-8.13,7.33-27,33.6-45.91,61.28-44.1,29.18,1.91,52.6,23.49,56.38,52C510.44,243.65,494.57,270.89,469.25,280Z" transform="translate(-253.57 -164)"/><path class="cls-5" d="M492.13,222.8c.7,4-.29,7.64-.75,11.29-.28,2.21-2.15,2.84-3.64,3.87-17.13,11.83-24.56,28.36-21.27,48.67,3.23,19.87,15.38,33,34.82,38.67,26.55,7.72,54.13-8.9,60.08-36,.66-3,1.45-4.56,4.7-3.11a7.6,7.6,0,0,0,1.55.29c6.51,1.3,6.51,1.3,4.67,8-6.77,24.65-30.31,46.59-63.24,44.09-27.64-2.11-49.79-23.47-54.22-49.83a60.29,60.29,0,0,1,34-64.64C489.86,223.61,491,223.25,492.13,222.8Z" transform="translate(-253.57 -164)"/><path class="cls-6" d="M358.76,222.91c.69,3.93-.15,7.55-.7,11.2-.3,2-1.92,2.72-3.33,3.65-26.63,17.51-30.28,54.15-7.25,76,13.6,12.91,30.07,16.47,47.79,11.07,17.5-5.33,28.51-17.56,32.75-35.49.69-2.91,1.38-4.66,4.7-3.15a7.06,7.06,0,0,0,1.56.28c6.56,1.33,6.56,1.33,4.68,8-8,28.41-33.93,46.28-64,44.07-27-2-50.25-24.67-53.95-52.54-3.42-25.73,11.64-52.21,35.51-62.44C357.2,223.3,358,223.15,358.76,222.91Z" transform="translate(-253.57 -164)"/><path class="cls-1" d="M1064.73,367.8c0,20.91-.06,41.81.07,62.71,0,2.78-.63,3.62-3.45,3.46-4.61-.26-9.26-.18-13.88,0-2.09.07-2.67-.56-2.64-2.64.12-7.8.05-15.61.05-23.41,0-34.27,0-68.54-.07-102.8,0-3.08.71-4.07,3.85-3.86a96,96,0,0,0,12.69,0c2.8-.17,3.47.66,3.45,3.45C1064.67,325.73,1064.73,346.77,1064.73,367.8Z" transform="translate(-253.57 -164)"/><path class="cls-1" d="M367.45,436.28c-9.52.38-16.39-5.81-19.69-14.73-1.09-2.91-1.16-6-2.22-8.89-.64-1.75.75-1.7,2-1.82,3.1-.28,6.25.71,9.34-.59,1.53-.64,1.1.89,1.25,1.68a26.65,26.65,0,0,0,2.54,7.51c1.75,3.36,4.38,4.77,8,4s6.69-4.66,7-8.28c.45-5.93-2.75-10.13-6.79-13.7-6.41-5.66-13.3-10.92-17.92-18.21-7-11.07-5-25.88,5.75-31.83,11-6.1,27.2-2.76,30.83,15.47.39,2-1.19,2.37-2.2,2.53a38.79,38.79,0,0,0-7.88,1.66c-.84.31-1.68.2-1.88-1.22a16.25,16.25,0,0,0-1.53-4.28c-1.84-4-4.86-5.75-8.69-4.7s-5.25,4.09-5.53,7.58c-.64,7.82,3.77,13.28,9.39,17.7,7,5.5,13.15,11.4,17.07,19.67C392.08,418.16,385.46,437,367.45,436.28Z" transform="translate(-253.57 -164)"/><path class="cls-1" d="M591.63,375c-.43,9.6,1.41,17.55.7,25.56-.92,10.23-.8,20.48-.72,30.73,0,2.07-.57,2.57-2.63,2.65-5.87.23-11.78-.92-17.61.62-1.53.4-1.68-1.29-1.82-2a44.81,44.81,0,0,1-1-8.07c-.12-8.32-.08-16.65,0-25a238.29,238.29,0,0,0-1.6-30.92c-.52-4.09,1-8,.83-12.09a1.79,1.79,0,0,1,1.91-2c5.06-.14,9.89-2,15.05-1.68s5.93.34,5.92,5.72C590.64,364.62,592.46,370.55,591.63,375Z" transform="translate(-253.57 -164)"/><path class="cls-1" d="M508.2,403.45c0-8.86-.43-17.74.13-26.56q.69-11,.63-22c0-1.59.55-2,2.05-2q7.93.12,15.86,0c1.57,0,2.17.51,2,2-1.81,14.22.25,28.59-1.56,42.82a16.12,16.12,0,0,0,0,2.78c.38,10.92-.53,21.81-.74,32.71,0,2.13-.87,2.28-2.58,2.28-4.71,0-9.34-1.34-14.08-.84-2.31.24-1.64-1.55-1.64-2.69C508.18,422.47,508.2,413,508.2,403.45Z" transform="translate(-253.57 -164)"/><path class="cls-1" d="M409,398.57c0-11-.09-22,.06-32.94,0-2.58-.64-3.65-3.24-3.19a4.16,4.16,0,0,1-.79,0c-10.51,0-10.46,0-9.58-10.73.13-1.52.51-2,2-2q17.85.07,35.71,0c1.56,0,2.2.48,2,2a1.78,1.78,0,0,0,0,.4c.5,10.26.49,10.39-9.94,10.22-3-.05-3.65.75-3.63,3.68.13,22,0,43.92.15,65.87,0,3-.69,3.72-3.66,3.66-9.12-.18-9.12,0-9.12-9.22Z" transform="translate(-253.57 -164)"/><path class="cls-1" d="M482,373c1.12,16.32.57,32.66.93,49,.08,3.47.62,7,.67,10.52,0,1.28.07,2.36-1.79,2.22-4.42-.33-8.87.49-13.3-.71-1.42-.39-1.68-.85-1.6-2a6.94,6.94,0,0,0,0-.79c-.26-25.18-1.15-50.36-.88-75.55,0-3.08.88-3.95,3.73-3.55a27.52,27.52,0,0,0,4,0c8.06,0,8.09,0,8.26,8.17C482.07,364.53,482,368.76,482,373Z" transform="translate(-253.57 -164)"/><path class="cls-7" d="M387.93,234.11c1.6.29,2.76.49,3.91.72,5.35,1,8.7,3.34,11.25,9.09,8.31,18.68,23.42,28.28,44,28.75,3,.07,4.39.5,3.42,3.75a8.11,8.11,0,0,0-.11,2.37c0,5.9.05,5.9-5.86,5.63a60.54,60.54,0,0,1-56-46.72C388.24,236.68,388.15,235.63,387.93,234.11Z" transform="translate(-253.57 -164)"/><path class="cls-8" d="M510.76,224.29c0-5.7,0-5.7,5.77-5.66,26.43.19,51.61,21.34,56.6,47.43.5,2.65-.29,3.09-2.58,2.23a16.26,16.26,0,0,0-2.69-.66c-4.53-.82-7.11-3-9.12-7.7-8.27-19.17-23.49-28.91-44.23-29.78-3.19-.13-4.55-.55-3.77-3.89A9.24,9.24,0,0,0,510.76,224.29Z" transform="translate(-253.57 -164)"/><path class="cls-9" d="M377.4,224.52c.05-5.93.05-5.93,6-5.89,26.21.19,52,21.86,56.39,47.37.44,2.54-.29,3.2-2.64,2.27a11.35,11.35,0,0,0-1.94-.42c-4.88-1-7.82-3.21-10.05-8.35C417,240.62,401.82,231,381.4,230.2c-4-.16-4.55-1.29-4-4.49A7.87,7.87,0,0,0,377.4,224.52Z" transform="translate(-253.57 -164)"/><path class="cls-1" d="M597.12,427.1v-2c0-5.88.09-5.36,6-6.41,12.11-2.16,16.72-6.76,17.71-19.35.23-2.9.73-4.14,3.69-3.58.39.07.8,0,1.19,0,3.11.26,7.84-1.42,9,.65,1.56,2.85,1.2,7.32.42,10.82-2.75,12.32-9.58,21.61-21.88,25.92-2.88,1-6.05,2-9.26.73-.23-.09-.54,0-.79,0-2-.52-4.74,1.62-5.5.53C596.2,432.33,597.35,429.32,597.12,427.1Z" transform="translate(-253.57 -164)"/><path class="cls-1" d="M603.26,352.92c5,.53,11.16,4.21,16.93,8.45,8.66,6.37,12.1,15.77,14.2,25.82.37,1.78.29,3.22-2.44,3.14a58,58,0,0,0-7.7.82c-3.39.38-4.44-.86-5-4-1.11-6.44-4.16-11.74-9.92-15.29a23.14,23.14,0,0,0-9.34-3c-1.73-.22-2.11-.64-2.17-2.3a50.13,50.13,0,0,0-.93-8.47C595.83,352.89,595.72,352.92,603.26,352.92Z" transform="translate(-253.57 -164)"/><path class="cls-1" d="M531.85,394.86c10.41,4.81,20.32,9.46,30.29,13.95,2,.91,2.8,2.17,2.42,4.24-.78,4.28-1.5,8.58-2.44,12.84-.39,1.8-1.58,1.7-3.33,1.21-8.71-2.46-17.2-5.5-25.62-8.81-1.8-.71-1.92-1.45-2-3C530.92,408.65,532.72,402.07,531.85,394.86Z" transform="translate(-253.57 -164)"/><path class="cls-1" d="M531.16,390c.48-6.63-.64-13.14.75-19.64a4.26,4.26,0,0,1,1.84-2.94c5.48-4.05,10.93-8.13,16.32-12.3,2.2-1.7,4.23-1.7,6.13.25,2.62,2.68,5.39,5.14,7.27,8.59,1.45,2.65,1.35,3.75-1.23,5.3-9.76,5.89-18.83,12.81-28.14,19.37A8.71,8.71,0,0,1,531.16,390Z" transform="translate(-253.57 -164)"/><path class="cls-1" d="M460.56,362.89a24.57,24.57,0,0,0,0,4c.53,3.07-.84,4.19-3.63,3.47-4.13-1.08-8.3-.73-12.46-.72-1.67,0-2.22-.41-2.26-2.18-.09-4.28.67-8.61-.71-12.84-.32-1,.1-1.83,1.41-1.69,4.85.55,9.57-1,14.42-.85,1.81.06,2.16.53,2.54,2.35A47.73,47.73,0,0,1,460.56,362.89Z" transform="translate(-253.57 -164)"/><path class="cls-1" d="M502.46,352.92c1.54,4.35.37,8.75,1.52,13,.63,2.32.69,4-2.7,3.76-4.8-.35-9.65.31-14.43-.8-1-.24-1.71-.22-1.69-1.52.06-4-1.14-8-.86-12.06.13-1.91.63-2.43,2.49-2.39C492.19,353,497.59,352.92,502.46,352.92Z" transform="translate(-253.57 -164)"/></svg>