<svg id="Capa_1" data-name="Capa 1" xmlns="http://www.w3.org/2000/svg" viewBox="0 0 576.7 282.9"><defs><style>.cls-1{fill:#fff;}.cls-2{fill:#bb2f34;}.cls-3{fill:#528ebe;}.cls-4{fill:#08040a;}.cls-5{fill:#60a45e;}.cls-6{fill:#e0c338;}.cls-7{fill:#08050a;}.cls-8{fill:#61a45e;}.cls-9{fill:#e0c339;}</style></defs><title>logo_2tkdo</title><path class="cls-1" d="M496.3,482.11c.46-2.08,1-4.14,1.37-6.23,1.22-6.57,2.34-13.16,3.58-19.73s2.66-13.08,3.89-19.63c1.28-6.8,2.39-13.62,3.91-20.38.4-1.79.64-3.65.95-5.47.25-1.41.66-1.66,1.95-1.65q9.09.11,18.18,0c1.45,0,2,.23,2,1.85q-.09,49.92,0,99.84c0,1.44-.22,2-1.86,2-4-.14-8-.2-11.94,0-2.06.11-2.21-.7-2.2-2.38q.07-29.26,0-58.51v-2.68l-.35,0c-2.21,10.83-4.36,21.68-6.65,32.5-2,9.67-4.26,19.3-6,29-.24,1.38-.82,2.19-2.54,2.07a43.19,43.19,0,0,0-8.2,0c-2.38.29-2.79-1-3.18-2.73q-2.6-11.36-5.22-22.73-3.87-16.87-7.74-33.75a22.26,22.26,0,0,0-1.48-4.34v2.52c0,19.42,0,38.84.06,58.26,0,2.38-.71,2.84-2.86,2.74a86.75,86.75,0,0,0-10.45,0c-2.41.17-2.74-.74-2.73-2.86q.09-49.05,0-98.1c0-2.38.74-2.78,2.87-2.73,5.55.15,11.13.25,16.67,0,2.69-.14,3.56.74,4,3.23,2.05,12.62,4.83,25.1,7.39,37.62,2.19,10.72,4.1,21.49,6.13,32.25Z" transform="translate(-15.89 -229.85)"/><path class="cls-1" d="M134.43,458.18a19.3,19.3,0,0,1,10.43,10.71,39.33,39.33,0,0,1,2.35,20.52c-.71,5-2.14,9.73-5.13,13.76a22.2,22.2,0,0,1-14.22,8.93c-6.88,1.23-13.84.29-20.76.51-3.31.11-6.64-.12-9.95.07-2,.12-2.37-.6-2.37-2.45q.07-49.39,0-98.8a6.54,6.54,0,0,0,0-1c-.14-1.07.25-1.42,1.37-1.41,8.21,0,16.43-.25,24.63.11a26.73,26.73,0,0,1,17.42,7.29C142.1,420.06,144,425,145,430a31.48,31.48,0,0,1-.91,17.09C142.38,451.86,139.69,455.86,134.43,458.18Zm-22.68,23.46c0,4.63,0,9.27,0,13.9,0,1.25.25,1.78,1.62,1.68,1.81-.12,3.64,0,5.46,0a11.15,11.15,0,0,0,9.93-7.16c1.9-4.65,1.81-9.39.87-14.08-.88-4.41-3.12-7.93-8-9.21-2.78-.74-5.55-.13-8.3-.44-1.39-.15-1.62.45-1.6,1.68C111.79,472.53,111.75,477.08,111.75,481.64Zm0-44.19c0,2.24-.06,4.48,0,6.71s-1,5.13.45,6.39c1.22,1.08,4.09.37,6.23.31a8.85,8.85,0,0,0,7.88-4.27c2.62-4.19,2.66-8.59,1.91-13.26s-3.31-7.51-7.63-8.6c-2.27-.57-4.77-.11-7.16-.27-1.48-.1-1.76.47-1.73,1.81C111.81,430,111.75,433.73,111.75,437.45Z" transform="translate(-15.89 -229.85)"/><path class="cls-1" d="M445.37,376.07c1.5-8.29,3-16.59,4.53-24.88,1-5.52,2.33-11,3.32-16.54s1.95-10.93,3-16.38c.26-1.31.74-1.33,1.71-1.33,4.73,0,9.46.06,14.19,0,1.33,0,1.64.39,1.64,1.67q-.06,40,0,79.92c0,1.34-.39,1.67-1.67,1.63-2.9-.08-5.81-.15-8.71,0-1.8.1-2.15-.48-2.14-2.19.07-15.43,0-30.87,0-46.31v-2.48l-.26,0c-1.07,5.07-2.16,10.13-3.22,15.2q-2.4,11.44-4.77,22.88c-.75,3.62-1.53,7.23-2.17,10.87-.26,1.44-.75,2.13-2.33,2-2.24-.12-4.48-.06-6.72,0-1.13,0-1.68-.24-2-1.56-3.07-13.11-6.27-26.18-9.39-39.28-.81-3.41-1.47-6.85-2.51-10.24v15.89c0,10.87-.09,21.74.07,32.61,0,2.32-.68,2.76-2.75,2.61a58,58,0,0,0-7.46,0c-1.74.1-2.37-.23-2.37-2.21q.14-39.46,0-78.93c0-1.52.22-2.15,2-2.1,4.72.13,9.46.1,14.19,0,1.58,0,2.05.62,2.32,2.05,2.09,10.73,4.29,21.44,6.38,32.17,1.62,8.29,3.12,16.6,4.68,24.9Z" transform="translate(-15.89 -229.85)"/><path class="cls-1" d="M219.31,459.65c0-9.46.1-18.92,0-28.37a24.73,24.73,0,0,1,18.63-24.46c8.43-2.17,16.12-.16,22.67,5.89,5.74,5.31,8.09,11.84,8.05,19.54-.08,18.25-.2,36.5,0,54.74.15,11.78-7.5,22-18.47,24.85-8.33,2.14-16,.54-22.5-5.43-6.05-5.52-8.64-12.26-8.44-20.39C219.48,477.24,219.31,468.44,219.31,459.65Zm15.44-.78c0,9.45,0,18.9,0,28.34,0,5.91,4.21,9.57,9.09,9.49s8.86-3.61,8.86-9.46q0-28.11,0-56.2c0-5.91-4.21-9.56-9.09-9.48s-8.87,3.61-8.86,9.46C234.77,440.3,234.75,449.59,234.75,458.87Z" transform="translate(-15.89 -229.85)"/><path class="cls-1" d="M158.56,459.65c0-9.45.1-18.91,0-28.36a24.74,24.74,0,0,1,18.62-24.47c8.43-2.17,16.12-.16,22.67,5.89,5.75,5.31,8.1,11.84,8.06,19.54-.09,18.24-.2,36.49,0,54.74.16,11.77-7.49,22-18.46,24.85-8.34,2.14-16,.54-22.5-5.43-6.05-5.51-8.64-12.26-8.45-20.38C158.72,477.24,158.56,468.45,158.56,459.65Zm33.37-.56c0-9.45,0-18.9,0-28.35,0-5.57-3.91-9.1-8.86-9.17s-9.05,3.6-9.05,9.25q0,28.35,0,56.7a8.73,8.73,0,0,0,8.87,9.17c5,.07,9-3.61,9-9.25Q191.94,473.27,191.93,459.09Z" transform="translate(-15.89 -229.85)"/><path class="cls-1" d="M447.76,512.71c-5,0-10-.06-14.95,0a1.61,1.61,0,0,1-1.8-1.51c-.75-4.63-1.38-9.28-2-13.92-.35-2.4-.7-4.8-1-7.2-.13-1.09-.76-1.33-1.71-1.32-4.64,0-9.29,0-13.93,0-.88,0-1.2.17-1.35,1.19-1.08,7.26-2.31,14.49-3.4,21.75-.15,1-.59,1-1.28,1-4.64,0-9.29,0-13.93,0-1.09,0-1.33-.21-1.11-1.42,1.2-6.67,2.19-13.37,3.35-20,1.09-6.26,2.32-12.5,3.43-18.76.89-5,1.71-10,2.52-15,.87-5.34,1.63-10.69,2.53-16s2-10.93,2.95-16.4c.86-4.92,1.73-9.84,2.45-14.78.15-1,.51-1.17,1.36-1.16q9.7,0,19.41,0c.76,0,1.09.1,1.23,1,.74,4.78,1.62,9.53,2.45,14.29.94,5.4,1.9,10.79,2.81,16.19s1.77,10.82,2.67,16.23,1.9,11.12,2.84,16.68q1.32,7.86,2.64,15.73c.94,5.56,1.92,11.12,2.85,16.68C447.12,508.09,447.4,510.24,447.76,512.71ZM425.3,473.37c-1.89-13.2-3.75-26.23-5.62-39.25-1.33,6.17-2.3,12.24-3.15,18.32-.9,6.5-1.55,13-2.62,19.49-.24,1.42-.13,1.46,1,1.45C418.34,473.35,421.73,473.37,425.3,473.37Z" transform="translate(-15.89 -229.85)"/><path class="cls-1" d="M334.85,459.21c0-9.55.11-19.09,0-28.64-.18-11.45,9.24-22.27,20.22-24.12,8.51-1.43,15.8.82,21.79,6.61a23.24,23.24,0,0,1,7.3,16.35c.11,4,0,8,0,11.95,0,1.17-.27,1.57-1.5,1.55-4.31-.08-8.63-.11-12.95,0-1.51,0-1.54-.67-1.52-1.77,0-3.41-.09-6.81,0-10.21.21-5.46-4.61-9.64-8.85-9.57-4,.07-8.66,4.06-8.64,9.55q.15,28.4,0,56.77c0,5.45,4.62,9.63,8.88,9.56,4-.07,8.79-4.05,8.62-9.56-.13-4.06,0-8.13-.06-12.2,0-1.42.39-1.8,1.79-1.77,4.14.09,8.3.1,12.44,0,1.43,0,1.79.4,1.77,1.79-.08,5,.26,10-.1,14.94a23.61,23.61,0,0,1-14.5,20.11,24,24,0,0,1-20,0,24.64,24.64,0,0,1-14.28-17.63,31.81,31.81,0,0,1-.47-7.34Q334.83,472.4,334.85,459.21Z" transform="translate(-15.89 -229.85)"/><path class="cls-1" d="M543,460.65c0-16.43,0-32.86,0-49.3,0-1.86.44-2.31,2.3-2.29,8.21.12,16.44-.21,24.64.11,10.8.43,20.11,7.73,21.9,19.22,1.18,7.64.84,15.39.36,23-.67,10.65-9.51,20-19.89,21.53-3.8.54-7.55.3-11.33.37-1.61,0-2,.42-2,2,.07,11.7,0,23.41.09,35.11,0,1.86-.43,2.37-2.3,2.29-3.89-.16-7.8-.14-11.7,0-1.64,0-2-.43-2-2C543,494,543,477.33,543,460.65Zm15.94-19.16c0,4.88,0,9.77,0,14.65,0,1.36.28,1.87,1.74,1.81,2.65-.12,5.3,0,8,0a8.82,8.82,0,0,0,8.26-8.21c0-5.46,0-10.93,0-16.39a7.88,7.88,0,0,0-5.7-7.75c-3.45-1.09-7-.23-10.52-.54-1.48-.13-1.75.47-1.73,1.81C559,431.72,558.94,436.6,558.94,441.49Z" transform="translate(-15.89 -229.85)"/><path class="cls-1" d="M286,357.51c0-7.71-.09-15.43,0-23.15a19.69,19.69,0,0,1,22.06-19.25A19.91,19.91,0,0,1,325.41,335c-.08,15.52.08,31-.07,46.55-.08,8.84-7.64,16.83-15.58,18.25-9,1.61-15.7-1.64-20.73-8.86a16.65,16.65,0,0,1-3-9.51C286,373.45,286,365.48,286,357.51Zm26.4.23c0-7.87,0-15.74,0-23.61,0-3.41-3.35-6.41-6.79-6.67-3.11-.25-7.11,3.13-7.12,6.33,0,15.74-.1,31.48,0,47.23,0,4.47,4.29,7,7.38,6.81s6.7-4.17,6.6-7.22C312.27,373,312.44,365.37,312.44,357.74Z" transform="translate(-15.89 -229.85)"/><path class="cls-1" d="M310,468.84c0,13.86,0,27.72,0,41.58,0,1.8-.34,2.41-2.26,2.32-3.81-.18-7.64-.16-11.45,0-1.82.07-2.34-.36-2.32-2.27.11-10.2.05-20.41.05-30.62,0-17.67,0-35.35.05-53,0-1.8-.33-2.41-2.26-2.33-4.31.17-8.63,0-12.95.08-1.36,0-1.84-.29-1.8-1.75.1-4.06.07-8.13,0-12.19,0-1.17.26-1.55,1.49-1.55q23.16.06,46.31,0c1.16,0,1.57.26,1.55,1.5-.08,4.15-.11,8.3,0,12.44.05,1.51-.65,1.55-1.76,1.54-4.15,0-8.31.09-12.45-.06-1.83-.07-2.33.37-2.31,2.27C310,440.79,310,454.82,310,468.84Z" transform="translate(-15.89 -229.85)"/><path class="cls-1" d="M564.91,357.24c0,7.55.06,15.1,0,22.65,0,4.78,3.21,7.72,7.16,7.78s7.47-2.8,7.32-7.87c-.09-3.06,0-6.14,0-9.2,0-1.29.14-1.94,1.69-1.88,3.23.13,6.47,0,9.7.06.65,0,1.65-.4,1.58.9-.31,5.71.87,11.52-1,17.13-3.31,9.92-14.37,15.51-24.41,12.61a20.59,20.59,0,0,1-14.49-19.75c.23-15.26.05-30.53.07-45.8A19.92,19.92,0,0,1,567.67,315c11.66-2.73,22.51,4.69,24.53,16.62.62,3.63.08,7.45.12,11.18,0,.93-.41,1.08-1.2,1.07-3.49,0-7-.05-10.46,0-1.17,0-1.34-.46-1.32-1.46,0-2.49-.07-5,0-7.47.21-5.07-3.3-8-7.17-8s-7.44,2.75-7.33,8.15C565,342.47,564.91,349.85,564.91,357.24Z" transform="translate(-15.89 -229.85)"/><path class="cls-1" d="M483.24,358.55c0-13.1,0-26.2,0-39.3,0-1.78.3-2.39,2.25-2.34,6.3.15,12.61-.12,18.9.1,9.15.32,17,5.62,18.19,15.56.91,7.55,1.65,15.28-.57,22.66-2.08,6.93-7.21,11.19-14.28,13.06a20.33,20.33,0,0,1-4.84.47c-2.3,0-5.43-.79-6.7.38-1.47,1.36-.42,4.52-.43,6.89-.06,7.3-.11,14.6,0,21.89,0,1.94-.54,2.35-2.34,2.25a72.36,72.36,0,0,0-8.2,0c-1.69.1-2-.5-2-2.07C483.27,384.92,483.24,371.74,483.24,358.55Zm12.45-15.69c0,1.91-.06,3.82,0,5.73.1,2.53-1.12,6,.49,7.34s4.9.41,7.46.36a7,7,0,0,0,7-7c.07-4.48.05-9,0-13.44a6.93,6.93,0,0,0-4.62-6c-2.82-1-5.72-.17-8.56-.47-1.43-.15-1.81.37-1.78,1.77C495.76,335.06,495.69,339,495.69,342.86Z" transform="translate(-15.89 -229.85)"/><path class="cls-1" d="M407,317c-2.61,7.41-5.22,14.68-7.74,22-2.95,8.52-5.78,17.09-8.79,25.59a7.33,7.33,0,0,0-.37,2.61c0,10.29-.07,20.58,0,30.87,0,1.77-.45,2.25-2.18,2.15a82.32,82.32,0,0,0-8.46,0c-1.59.08-1.9-.42-1.89-1.93.07-10-.06-20.08.08-30.12,0-4.28-1.83-8-3.13-11.8-2.6-7.63-5.33-15.21-7.9-22.85-1.84-5.45-3.87-10.83-5.9-16.5,4.35,0,8.52.06,12.69,0,1.17,0,1.44.74,1.65,1.41,2.94,9.43,5.82,18.88,8.79,28.56,2.94-9.51,5.85-18.8,8.65-28.12a2.14,2.14,0,0,1,2.52-1.85C399,317,402.89,317,407,317Z" transform="translate(-15.89 -229.85)"/><path class="cls-2" d="M202.56,273.64a39.74,39.74,0,0,1,7,2.19c1.28.45,1.31,1.64,1.68,2.59a30.46,30.46,0,1,0-1.23-17.15c-.41,1.88-.91,2.46-2.67,1.64a3.44,3.44,0,0,0-.72-.17c-4.48-1.08-4.48-1.08-3.15-5.6a37.76,37.76,0,0,1,73.48,4c3.69,20.39-10.12,40-30.79,43.76C225.83,308.6,206.11,294.6,202.56,273.64Z" transform="translate(-15.89 -229.85)"/><path class="cls-3" d="M110.27,270.47c-.69,12.73-7.72,24.27-21.72,31.38-1.63.82-2.89,1.24-2.28-1.45a10.86,10.86,0,0,0,.13-2,6.81,6.81,0,0,1,3.37-5.8,30.13,30.13,0,0,0,11.43-35.15c-4.58-13.09-17.07-21.05-31.55-20.11-12.72.82-24,10.89-26.91,23.94-4.05,18.37,10,36.33,28.77,36.76,3.26.07,3.26.07,3.19,3.45-.08,4.14-.08,4.14-4.08,3.9a38,38,0,0,1-34.83-28.92c-5.42-21.65,10-43.77,32.15-46.25C90.7,227.68,110.3,245,110.27,270.47Z" transform="translate(-15.89 -229.85)"/><path class="cls-1" d="M335.34,358.56c0-13.11.05-26.22,0-39.33,0-1.85.39-2.43,2.28-2.3a58.74,58.74,0,0,0,8,0c1.87-.12,2.31.42,2.3,2.29-.08,18.5,0,37,0,55.51,0,3.74.07,7.47,0,11.2,0,1.4.35,1.81,1.77,1.79,6.14-.08,12.28,0,18.42-.06,1.4,0,1.84.35,1.79,1.77-.11,3.07-.09,6.14,0,9.21,0,1.2-.32,1.53-1.52,1.52-10.46,0-20.91-.07-31.37,0-1.84,0-1.49-1-1.49-2Q335.33,378.36,335.34,358.56Z" transform="translate(-15.89 -229.85)"/><path class="cls-4" d="M170,302.62a25.77,25.77,0,0,1,.49-7.08,2.93,2.93,0,0,1,1.66-2c11.29-7.26,16.52-19.71,13.74-32.62-2.63-12.17-12.88-21.54-25.68-23.47-15.52-2.34-30.53,8.27-33.82,24.07-.36,1.77-.9,2-2.35,1.47a6.33,6.33,0,0,0-1.22-.27c-4.24-.79-4.24-.79-3.07-5.1,4.6-16.94,21.08-28.8,38.44-27.66a37.76,37.76,0,0,1,35.36,32.59C195.82,279.8,185.87,296.89,170,302.62Z" transform="translate(-15.89 -229.85)"/><path class="cls-5" d="M184.34,266.73c.44,2.52-.18,4.79-.47,7.08-.18,1.39-1.35,1.78-2.29,2.43-10.74,7.42-15.4,17.79-13.34,30.52,2,12.47,9.65,20.71,21.84,24.26a30.11,30.11,0,0,0,37.69-22.58c.41-1.87.91-2.86,2.94-1.95a5.3,5.3,0,0,0,1,.18c4.08.82,4.08.82,2.93,5a37.76,37.76,0,1,1-52.36-44.14C182.92,267.24,183.61,267,184.34,266.73Z" transform="translate(-15.89 -229.85)"/><path class="cls-6" d="M100.68,266.8c.43,2.46-.1,4.73-.44,7-.19,1.27-1.2,1.71-2.09,2.29-16.7,11-19,34-4.55,47.67,8.54,8.1,18.87,10.33,30,7s17.89-11,20.55-22.27c.43-1.82.86-2.92,2.94-2a5,5,0,0,0,1,.18c4.11.83,4.11.83,2.93,5-5,17.82-21.28,29-40.15,27.64C93.92,338.1,79.31,323.87,77,306.39a38.05,38.05,0,0,1,22.28-39.16A12.35,12.35,0,0,1,100.68,266.8Z" transform="translate(-15.89 -229.85)"/><path class="cls-1" d="M543.5,358.67c0,13.11,0,26.22,0,39.34,0,1.73-.39,2.26-2.16,2.16-2.89-.16-5.81-.11-8.71,0-1.31,0-1.67-.35-1.65-1.65.08-4.9,0-9.79,0-14.69,0-21.49,0-43,0-64.48,0-1.93.45-2.55,2.42-2.42a60.41,60.41,0,0,0,8,0c1.76-.1,2.18.42,2.16,2.17C543.46,332.28,543.5,345.48,543.5,358.67Z" transform="translate(-15.89 -229.85)"/><path class="cls-7" d="M119,273.82l2.45.45c3.36.66,5.46,2.1,7.06,5.71,5.21,11.71,14.69,17.74,27.58,18,1.87,0,2.76.31,2.15,2.35a4.92,4.92,0,0,0-.07,1.49c0,3.7,0,3.7-3.68,3.53a38,38,0,0,1-35.15-29.31C119.17,275.43,119.12,274.78,119,273.82Z" transform="translate(-15.89 -229.85)"/><path class="cls-8" d="M196,267.66c0-3.57,0-3.57,3.62-3.55,16.58.12,32.38,13.39,35.5,29.75.32,1.67-.18,1.94-1.62,1.4a9.37,9.37,0,0,0-1.68-.41c-2.84-.52-4.46-1.91-5.72-4.83-5.19-12-14.73-18.13-27.74-18.68-2-.08-2.86-.34-2.37-2.44A5.7,5.7,0,0,0,196,267.66Z" transform="translate(-15.89 -229.85)"/><path class="cls-9" d="M112.37,267.81c0-3.72,0-3.72,3.78-3.7,16.44.12,32.59,13.71,35.37,29.72.28,1.59-.18,2-1.66,1.42a6.06,6.06,0,0,0-1.21-.26c-3.07-.6-4.91-2-6.31-5.24-5.13-11.84-14.65-17.87-27.46-18.38-2.51-.1-2.85-.81-2.51-2.82A4.57,4.57,0,0,0,112.37,267.81Z" transform="translate(-15.89 -229.85)"/><path class="cls-1" d="M246.75,362.24c-.27,6,.89,11,.43,16-.57,6.42-.49,12.85-.45,19.28,0,1.3-.35,1.61-1.64,1.66-3.68.14-7.39-.58-11.05.39-1,.25-1.06-.81-1.14-1.24a27.87,27.87,0,0,1-.61-5.06c-.07-5.22,0-10.44,0-15.66a149.65,149.65,0,0,0-1-19.4c-.32-2.56.65-5,.52-7.58a1.12,1.12,0,0,1,1.2-1.28c3.17-.08,6.21-1.23,9.44-1.05s3.72.21,3.72,3.59C246.13,355.71,247.27,359.43,246.75,362.24Z" transform="translate(-15.89 -229.85)"/><path class="cls-1" d="M194.42,380.06c0-5.55-.27-11.12.08-16.65q.44-6.92.39-13.81c0-1,.35-1.26,1.29-1.25,3.32,0,6.63,0,9.95,0,1,0,1.36.32,1.23,1.28-1.13,8.92.16,17.94-1,26.86a11.22,11.22,0,0,0,0,1.74c.24,6.85-.33,13.68-.46,20.52,0,1.34-.55,1.43-1.62,1.43-3,0-5.86-.84-8.83-.52-1.45.15-1-1-1-1.69C194.41,392,194.42,386,194.42,380.06Z" transform="translate(-15.89 -229.85)"/><path class="cls-1" d="M178,361c.71,10.24.36,20.49.59,30.72,0,2.18.38,4.39.41,6.6,0,.8.05,1.48-1.11,1.4-2.78-.21-5.57.3-8.35-.45-.89-.24-1.05-.53-1-1.27,0-.16,0-.33,0-.49-.17-15.8-.72-31.59-.55-47.39,0-1.93.55-2.48,2.34-2.23a17.09,17.09,0,0,0,2.48,0c5.05,0,5.08,0,5.18,5.13C178,355.66,178,358.31,178,361Z" transform="translate(-15.89 -229.85)"/><path class="cls-1" d="M250.19,394.9v-1.24c0-3.69.06-3.37,3.75-4,7.6-1.35,10.49-4.24,11.11-12.14.15-1.82.46-2.6,2.32-2.24.24,0,.5,0,.74,0,2,.16,4.92-.9,5.63.41,1,1.79.76,4.59.27,6.78-1.73,7.73-6,13.56-13.73,16.26-1.8.63-3.79,1.28-5.8.46-.15-.06-.34,0-.5,0-1.25-.33-3,1-3.45.33C249.61,398.18,250.34,396.29,250.19,394.9Z" transform="translate(-15.89 -229.85)"/><path class="cls-1" d="M254,348.37c3.16.33,7,2.64,10.62,5.3,5.44,4,7.59,9.9,8.91,16.2.23,1.11.18,2-1.53,2a34.58,34.58,0,0,0-4.83.51c-2.13.24-2.78-.54-3.12-2.49a13.32,13.32,0,0,0-6.22-9.59,14.41,14.41,0,0,0-5.86-1.88c-1.08-.14-1.32-.41-1.36-1.44a31.61,31.61,0,0,0-.58-5.32C249.39,348.36,249.31,348.37,254,348.37Z" transform="translate(-15.89 -229.85)"/><path class="cls-1" d="M209.25,374.68c6.53,3,12.74,5.93,19,8.75a2.18,2.18,0,0,1,1.52,2.66c-.49,2.68-.94,5.38-1.53,8.05-.25,1.13-1,1.07-2.09.76-5.46-1.54-10.79-3.45-16.07-5.52-1.13-.45-1.2-.92-1.24-1.86C208.67,383.33,209.79,379.2,209.25,374.68Z" transform="translate(-15.89 -229.85)"/><path class="cls-1" d="M208.82,371.6c.3-4.15-.41-8.24.47-12.32a2.7,2.7,0,0,1,1.15-1.84c3.44-2.54,6.86-5.1,10.24-7.71,1.38-1.07,2.65-1.07,3.85.15a25.25,25.25,0,0,1,4.56,5.39c.91,1.67.84,2.36-.77,3.33-6.13,3.69-11.82,8-17.66,12.15A5.4,5.4,0,0,1,208.82,371.6Z" transform="translate(-15.89 -229.85)"/><path class="cls-1" d="M164.54,354.62a15.76,15.76,0,0,0,0,2.51c.34,1.93-.53,2.63-2.28,2.17-2.59-.67-5.2-.46-7.81-.45-1.05,0-1.4-.25-1.42-1.37-.06-2.68.42-5.4-.44-8.05-.21-.62,0-1.15.88-1.06,3,.35,6-.64,9-.53,1.14,0,1.36.33,1.59,1.47A29.92,29.92,0,0,1,164.54,354.62Z" transform="translate(-15.89 -229.85)"/><path class="cls-1" d="M190.81,348.37c1,2.73.24,5.49,1,8.14.4,1.45.43,2.51-1.69,2.36-3-.22-6.06.19-9.06-.51-.63-.14-1.07-.14-1.06-.95,0-2.53-.71-5-.53-7.57.08-1.19.39-1.52,1.56-1.49C184.37,348.42,187.76,348.37,190.81,348.37Z" transform="translate(-15.89 -229.85)"/><path class="cls-1" d="M16.52,395c-.18-7.3-.25-14.48,1.38-21.59a46.63,46.63,0,0,1,5.72-14.7c5.14-8.12,12.07-14,21.79-15.56,7.6-1.23,15.16-1,22.14,3,5.92,3.38,10.29,8.29,13.83,14a36.29,36.29,0,0,1,5.81,16.77c.35,5.37.82,10.81.34,16.14-1,11.79-3.92,23.17-9.85,33.57-5.08,8.9-10.28,17.74-15.43,26.61C58.5,459.63,54.7,466.06,51,472.56c-2.61,4.62-5.07,9.32-7.59,14-.12.22-.22.46-.44.95H85.86v25.26H16.13c0-.62-.09-1.29-.09-1.95,0-5.41.31-10.85-.1-16.23-.36-4.69,1.25-8.52,3.53-12.34,3.36-5.59,6.56-11.27,9.92-16.86C33.13,459.14,37,453,40.76,446.78,45.23,439.33,49.87,432,54,424.31a199.66,199.66,0,0,0,8.72-19.05,51.54,51.54,0,0,0,3.23-23.59c-.44-5.47-2.64-10.45-7.52-13.4-4.44-2.7-11.24-2.33-14.91,2.71a26,26,0,0,0-5,15.67c0,2.73-.36,5.46-.57,8.32Z" transform="translate(-15.89 -229.85)"/><path class="cls-1" d="M97,352.5h7.81c3,10.24,6,20.55,9.06,30.85l.33-.07V352.59h7.08v47.55a61.07,61.07,0,0,1-6.51-.09c-.59-.06-1.3-1.14-1.55-1.89-2.77-8.49-5.46-17-8.17-25.51a5.37,5.37,0,0,0-.93-1.87V400H97Z" transform="translate(-15.89 -229.85)"/><path class="cls-1" d="M125.39,400.09V352.26c6,1,12.31-1.77,18,2.41a10.49,10.49,0,0,1,4.51,8.62c.15,8.66.24,17.33,0,26-.18,6.08-4.39,10.27-10.44,10.76C133.54,400.34,129.59,400.09,125.39,400.09Zm7.28-40.32v33.09h2.27c4.52,0,5.77-1.21,5.77-5.67,0-6.81-.13-13.62,0-20.43.16-6.15-1.28-7.67-7.45-7.14C133.15,359.64,133,359.69,132.67,359.77Z" transform="translate(-15.89 -229.85)"/></svg>